<?xml version="1.0" standalone="no"?>
<!DOCTYPE svg PUBLIC "-//W3C//DTD SVG 1.1//EN" "http://www.w3.org/Graphics/SVG/1.1/DTD/svg11.dtd" >
<svg xmlns="http://www.w3.org/2000/svg">
<metadata>
Created by FontForge 20120731 at Fri Jun  9 14:46:13 2017
 By admin
</metadata>
<defs>
<font id="iconfont" horiz-adv-x="1024" >
  <font-face 
    font-family="iconfont"
    font-weight="500"
    font-stretch="normal"
    units-per-em="1024"
    panose-1="2 0 6 3 0 0 0 0 0 0"
    ascent="896"
    descent="-128"
    x-height="792"
    bbox="0 -128.5 1111 896"
    underline-thickness="0"
    underline-position="0"
    unicode-range="U+0078-E976"
  />
<missing-glyph 
 />
    <glyph glyph-name=".notdef" 
 />
    <glyph glyph-name=".notdef" 
 />
    <glyph glyph-name=".null" horiz-adv-x="0" 
 />
    <glyph glyph-name="nonmarkingreturn" horiz-adv-x="341" 
 />
    <glyph glyph-name="x" unicode="x" horiz-adv-x="1001" 
d="M281 543q-27 -1 -53 -1h-83q-18 0 -36.5 -6t-32.5 -18.5t-23 -32t-9 -45.5v-76h912v41q0 16 -0.5 30t-0.5 18q0 13 -5 29t-17 29.5t-31.5 22.5t-49.5 9h-133v-97h-438v97zM955 310v-52q0 -23 0.5 -52t0.5 -58t-10.5 -47.5t-26 -30t-33 -16t-31.5 -4.5q-14 -1 -29.5 -0.5
t-29.5 0.5h-32l-45 128h-439l-44 -128h-29h-34q-20 0 -45 1q-25 0 -41 9.5t-25.5 23t-13.5 29.5t-4 30v167h911zM163 247q-12 0 -21 -8.5t-9 -21.5t9 -21.5t21 -8.5q13 0 22 8.5t9 21.5t-9 21.5t-22 8.5zM316 123q-8 -26 -14 -48q-5 -19 -10.5 -37t-7.5 -25t-3 -15t1 -14.5
t9.5 -10.5t21.5 -4h37h67h81h80h64h36q23 0 34 12t2 38q-5 13 -9.5 30.5t-9.5 34.5q-5 19 -11 39h-368zM336 498v228q0 11 2.5 23t10 21.5t20.5 15.5t34 6h188q31 0 51.5 -14.5t20.5 -52.5v-227h-327z" />
    <glyph glyph-name="7" unicode="&#xe624;" 
d="M128 513q0 157 111 270q112 113 271 113q158 0 271 -113t113 -270q0 -25 -2 -44q-2 -2 -2 -10l-6 -36q-2 0 -2 -6q-6 -20 -12 -36v-2q0 -1 -2 -2q-10 -27 -16 -38q0 -2 -2 -2q-9 -18 -22 -38t-26 -36l-1 -1l-1 -1q-9 -11 -28 -28q-1 0 -3 -2q-3 -2 -6 -6t-5 -6
q-6 0 -6 -4l-19 -15l-4 -3l-3 -2q-17 -14 -26 -32q-8 -18 -16 -26t-29 -8h-288q-22 0 -30 8t-17 26q-8 18 -25 32q-2 0 -4 2l-3 3l-19 15l-6 4l-8 8l-6 6l-28 28q0 1 -1 1l-1 1q-30 39 -47 74q-2 0 -2 2q-6 11 -16 38q-2 0 -2 2v2q-7 16 -12 36q-1 1 -1 3l-1 3q-4 16 -6 36
q0 1 -1 5t-1 5q-2 19 -2 44v0v0zM353 66h319q14 0 23 -9t9 -23t-9 -23t-23 -9h-319q-14 0 -23 9t-9 23t9 23t23 9v0v0zM367 -62h290l-118 -60q-29 -13 -58 0zM545 704q58 0 109 -47q50 -47 50 -116q0 -13 9.5 -22.5t23 -9.5t22.5 9.5t9 22.5q0 103 -67.5 165t-155.5 62
q-14 0 -23 -9t-9 -23t9 -23t23 -9v0zM545 704z" />
    <glyph glyph-name="2" unicode="&#xe6e4;" 
d="M788 716q80 0 184 71v-578q-104 -71 -184 -71q-107 0 -184.5 52.5t-183.5 52.5q-84 0 -185 -69v579q101 68 185 68q106 0 183.5 -52.5t184.5 -52.5v0zM113 884q25 0 43 -18.5t18 -44.5v-932h-123v932q0 26 18 44.5t44 18.5v0zM113 884z" />
    <glyph glyph-name="phone" unicode="&#xe677;" 
d="M75 768q-8 -10 -15.5 -27.5t-13 -47.5t-3.5 -65t16 -84t40.5 -101t75 -118t115.5 -134q70 -72 138.5 -125t123.5 -82t106 -45t88.5 -18t68.5 3t49 13t27 18l-229 228q-12 -11 -25.5 -13t-33.5 8t-39.5 24.5t-53.5 41.5q-93 76 -165 164q-16 20 -25.5 35t-17.5 32.5t-6 32
t14 26.5zM973 37q11 11 11 25.5t-11 25.5v0l-178 178q-11 10 -25.5 10t-25.5 -10l-65 -65l230 -229q4 4 10.5 11t21 21t23.5 23.5l9 9.5v0zM392 617q11 11 11 25.5t-11 25.5v0l-183 183q-11 10 -26 10t-25 -10l-65 -65l235 -234l64 65v0v0z" />
    <glyph glyph-name="cp2" unicode="&#xe77c;" 
d="M512 -10l-404 180l-54 24q-4 3 -8 5q0 -45 27 -59l395 -176q26 -13 43 -13t45 13l395 176q27 13 27 59l-62 -31l-404 -177v-1v0zM512 -1zM70 510l399 -177q26 -12 43 -12t45 12l399 177q22 10 22 42.5t-22 45.5l-399 208q-24 13 -43 13t-45 -13l-399 -208
q-23 -15 -23 -45t23 -43v0zM513 787l1 -1h2l432 -231l-434 -194l-437 194l437 232h-1zM73 326l395 -177q26 -12 43 -12t45 12l395 177q27 12 27 59l-62 -31l-404 -179l-404 179l-62 31q0 -45 27 -59v0v0zM73 326z" />
    <glyph glyph-name="kf" unicode="&#xe78a;" 
d="M881 333v26q3 178 -101 284q-48 50 -117 76q-5 48 -50.5 80.5t-108 32.5t-108 -32.5t-50.5 -80.5q-69 -26 -117 -76q-104 -106 -101 -284v-31q-34 -35 -21 -82q12 -43 54 -59q20 -12 44 -12q24 -107 106.5 -172.5t196.5 -65.5t196.5 65.5t106.5 172.5h3q30 0 53 19
q32 17 41 52q14 51 -27 87v0v0zM371 502q3 -5 8 -13t21 -27t34.5 -36t47.5 -36t60 -31q30 -11 91 -24q40 -8 61 -14t49.5 -22t46.5 -39q0 -1 1 -2v-2q0 -28 -4 -55q-38 -60 -98.5 -97.5t-137.5 -45.5q-13 17 -41 17q-19 0 -33 -9t-14 -22t14 -22t33 -9q17 0 30 7t15 19
q50 5 95 23q64 26 111 74l14 16q-28 -86 -99 -136t-167 -50v0h-1q-125 0 -204 81t-79 209l-1 16q0 9 2 45q26 9 48.5 26t36.5 32.5t25.5 33t15 25t5.5 12.5zM431 243q0 -22 -16 -38t-38.5 -16t-38 16t-15.5 38t15.5 38t38 16t38.5 -16t16 -38v0zM681 243q0 -22 -15.5 -37.5
t-37.5 -15.5t-37.5 15.5t-15.5 37.5t15.5 37.5t37.5 15.5t37.5 -15.5t15.5 -37.5v0zM681 243z" />
    <glyph glyph-name="ewm" unicode="&#xe68d;" 
d="M26 413h457v457h-457v-457zM541 413h457v457h-457v-457zM884 527h-229v229h229v-229zM155 542h199v199h-199v-199zM26 -102h457v457h-457v-457zM140 241h229v-229h-229v229zM827 699h-115v-115h115v115v0zM541 -102h114v114h-114v-114zM655 241v-229h115v229h-115z
M884 12h-114v-114h228v228h-114v-114zM884 241h114v114h-114v-114zM541 355v-114h114v114h-114zM197 69h115v115h-115v-115z" />
    <glyph glyph-name="1" unicode="&#xe600;" 
d="M353 -63h-47v106q-28 2 -53.5 6.5t-61.5 16.5t-62 29t-45 46.5t-21 67.5l41 1q1 -28 18 -51t40 -35.5t48.5 -21t40 -11t17.5 -2.5l81 -7v-145h4zM690 832q-64 0 -119 -26q-33 -15 -60 -39q-28 24 -62 39q-55 26 -119 26q-55 0 -100 -24q-42 -22 -72 -62q-59 -76 -59 -180
q0 -267 388 -479l24 -13l24 13q389 212 389 480q0 67 -27.5 126.5t-82 99t-124.5 39.5v0zM324 425q-30 16 -51.5 40t-31 45t-15 44.5t-5.5 32.5v15l42 -2q0 -4 0.5 -12t4 -25.5t10 -33.5t21 -33.5t33.5 -27.5zM673 -63v145l82 7q3 0 17.5 2.5t39.5 11t48 21t40.5 35.5
t18.5 51l40 -1q-1 -38 -20 -67.5t-45 -46.5t-62 -29t-62 -16.5t-54 -6.5v-106h-43zM673 -63z" />
    <glyph glyph-name="cp7" unicode="&#xe60e;" 
d="M544 253q-57 0 -97 15l-10 4l-3 9q-4 9 -7.5 23.5t-6.5 52.5t2.5 75t28.5 85.5t63 88.5q39 39 94 69.5t100.5 46t95.5 26t69.5 12.5t31.5 3l25 2l-1 -26q-1 -12 -3 -31.5t-12.5 -69.5t-26 -95.5t-46 -100t-69.5 -94.5q-95 -95 -228 -95zM473 307q34 -9 71 -9
q114 0 196 82q36 36 63.5 85t42.5 98.5t23 84.5t12 67q-32 -4 -67 -11.5t-85 -23t-98.5 -43t-84.5 -63.5q-37 -36 -57 -79t-22.5 -81.5t-0.5 -62.5t7 -44zM643 509l32 -32l-333 -333l-32 32zM929 3h-835v685h346v-45h-301v-595h745v301h45v-346z" />
    <glyph glyph-name="cp1" unicode="&#xe72c;" 
d="M285 -36q-9 5 -12 14.5t2 18.5t15 12t19 -2q47 -25 98 -38t105 -13q87 0 165 33t137.5 92.5t92.5 137.5t33 165t-33 165t-92.5 137.5t-137.5 92.5t-165 33t-165 -33t-137.5 -92.5t-92.5 -137.5t-33 -165q0 -77 26 -148q27 -72 76 -129q6 -8 5.5 -18.5t-8.5 -17t-18 -5.5
t-17 9q-55 65 -84 144q-30 80 -30 165q0 97 37 184.5t103 153.5t153.5 103t184.5 37t184.5 -37t153.5 -103t103 -153.5t37 -184.5t-37 -184.5t-103 -153.5t-153.5 -103t-184.5 -37q-59 0 -117 15q-57 14 -110 43v0zM681 368h-1l-154 -158q-6 -6 -15 -6t-15 6l-154 158
q-33 33 -33 80q0 48 33 82t79 34q44 0 77 -30l13 -13l14 13q33 30 77 30q47 0 80 -34t33 -82q-1 -47 -34 -80zM745 508q-12 30 -34 53q-46 46 -109 46q-49 0 -90 -30q-41 30 -91 30q-63 0 -109 -46q-22 -24 -33 -53t-11 -60t11 -59q11 -29 33 -52l155 -158q18 -18 44 -18
t45 18l154 158q22 22 34 52q12 28 12 59q1 31 -11 60zM421 529q-29 0 -51 -22q-21 -22 -21 -53q0 -6 4 -10t10 -4t10 4t4 10q0 18 12.5 31t30.5 13q12 0 14 13q2 6 -1 11q-4 7 -12 7z" />
    <glyph glyph-name="cp5" unicode="&#xe64b;" 
d="M122 378v0q5 97 55.5 179t131.5 129v0q12 9 12 23q0 12 -8 20t-20 8q-9 0 -17 -5q-92 -55 -149 -148.5t-61 -204.5v0v-1v0v0v0q0 -12 8 -20t19.5 -8t20 8.5t8.5 19.5zM959 377v1v1q-5 110 -61.5 203.5t-149.5 148.5q-7 5 -16 5q-12 0 -20 -8t-8 -20q0 -14 12 -23v0
q81 -47 131.5 -128.5t55.5 -178.5v-1q0 -11 8 -19.5t20 -8.5t20 8.5t8 19.5v0v0v0zM719 40q-12 7 -25 2v0q-83 -46 -177.5 -47t-182.5 45v0q-10 6 -21.5 3.5t-17.5 -12.5t-3.5 -21.5t12.5 -17.5v0v0v0q1 0 1 -0.5v-0.5q101 -53 208.5 -52.5t202.5 51.5q8 4 13 11
q6 10 3 21.5t-13 17.5zM431 751.5q0 -33.5 23.5 -57.5t57.5 -24t57.5 24t23.5 57.5t-23.5 57t-57.5 23.5t-57.5 -23.5t-23.5 -57zM79 174.5q0 -33.5 24 -57t57.5 -23.5t57.5 23.5t24 57t-24 57.5t-57.5 24t-57.5 -24t-24 -57.5zM782 174.5q0 -33.5 23.5 -57t57.5 -23.5
t57.5 23.5t23.5 57t-23.5 57.5t-57.5 24t-57.5 -24t-23.5 -57.5z" />
    <glyph glyph-name="top" unicode="&#xe678;" 
d="M588 44h-1q-6 0 -10 -4t-4 -10v-63q0 -6 4 -10.5t10 -4.5h1q6 0 10.5 4.5t4.5 10.5v63q0 6 -4.5 10t-10.5 4zM770 446q1 3 1 10t-1.5 29t-4.5 44.5t-11 54.5t-20 62.5t-32.5 66t-46.5 66.5t-63.5 61.5t-83.5 54.5q-5 -2 -14.5 -7t-36.5 -24t-52 -41.5t-55 -61t-52 -81.5
t-37 -105t-15 -129q-4 -2 -10.5 -6t-23.5 -18.5t-29.5 -31.5t-23 -46.5t-10.5 -63.5q0 -42 15.5 -77.5t38 -57t41.5 -33.5t32 -16q19 -5 30.5 4t12.5 21q4 50 13 50q5 0 34 -36.5t39 -39.5q14 -4 107.5 -3t101.5 4q4 2 21 21.5t32.5 37t17.5 17.5q5 -1 19 -57q1 -5 4.5 -10
t13 -10t23.5 1q15 6 33 18t41 34t38.5 57t15.5 75q0 33 -10.5 62t-25.5 47t-30.5 31.5t-25.5 19.5zM509.5 434q-49.5 0 -85 35.5t-35.5 85.5t35.5 85t85 35t85 -35t35.5 -85t-35.5 -85.5t-85 -35.5zM509 44h-1q-6 0 -10.5 -4t-4.5 -10v-144q0 -6 4.5 -10t10.5 -4h1q6 0 10 4
t4 10v144q0 6 -4 10t-10 4zM509.5 627q-30.5 0 -52.5 -22t-22 -52.5t22 -52.5t52.5 -22t52.5 22t22 52.5t-22 52.5t-52.5 22zM432 44h-1q-6 0 -10.5 -4t-4.5 -10v-63q0 -6 4.5 -10.5t10.5 -4.5h1q6 0 10 4.5t4 10.5v63q0 6 -4 10t-10 4z" />
    <glyph glyph-name="cp6" unicode="&#xe617;" 
d="M708 -80h-394q-34 0 -58.5 22.5t-24.5 54.5v776q0 32 24.5 54.5t58.5 22.5h394q34 0 58.5 -22.5t24.5 -54.5v-776q0 -32 -24.5 -54.5t-58.5 -22.5zM314 817q-21 0 -35.5 -13t-14.5 -31v-776q0 -18 14.5 -30.5t35.5 -12.5h394q20 0 34.5 12.5t14.5 30.5v776q0 18 -14.5 31
t-34.5 13h-394zM562 729h-101q-7 0 -12 5t-5 12t5 12t12 5h101q7 0 12 -5t5 -12t-5 -12t-12 -5zM513 -7q-22 0 -38.5 15.5t-16.5 38t16 38.5t39 16t39 -16t16 -38.5t-16 -38t-39 -15.5v0zM513 67q-8 0 -14 -6t-6 -14.5t6 -14.5t14.5 -6t14.5 6t6 15v0q0 8 -6 14t-15 6v0v0z
M247 706h532v-34h-532v34zM247 160h532v-34h-532v34z" />
    <glyph glyph-name="4" unicode="&#xe605;" horiz-adv-x="1448" 
d="M968 662l8 16h35l-96 107l-97 -107h51l-30 -39q-56 -74 -151 -116.5t-202 -42.5q-15 0 -33 1v-83h33q159 0 292 72.5t190 191.5zM867 401v-308h122v394h-122v-86zM671 392h117v-299h-117v299zM476 288h121v-195h-121v195zM419 60v650h-82v-728h774v78h-692z" />
    <glyph glyph-name="3" unicode="&#xe606;" 
d="M929 543q-29 89 -90 155q-103 112 -251 130t-274 -64l226 -352zM239 785q-29 -20 -55 -45q-65 -62 -99 -151l381 -155zM919 485l-391 -129l-382 154q-44 -113 -21.5 -232.5t103.5 -207.5q77 -83 182 -115.5t211.5 -7.5t188.5 103q87 83 116.5 201.5t-7.5 233.5z" />
    <glyph glyph-name="6" unicode="&#xe669;" 
d="M717 819h-410q-29 0 -49.5 -20.5t-20.5 -49.5v-736q0 -29 20.5 -50t49.5 -21h413q29 0 49.5 21t20.5 50v739q-2 29 -23 48t-50 19zM582.5 778q7.5 0 13.5 -6t6 -13.5t-6 -13.5t-13.5 -6t-13.5 6t-6 13.5t6 13.5t13.5 6zM442 778h83q7 0 13 -6t6 -13.5t-6 -13.5t-13 -6
h-83q-8 0 -14 6t-6 13q0 20 20 20zM512 -13q-19 0 -32 13t-13 32t13 32t32 13t32 -13t13 -32t-13 -32t-32 -13zM704 166v-38h-384v531h384v-493zM477 522h-83q-10 0 -16.5 -6.5t-6.5 -16.5v-83q0 -10 6.5 -16t16.5 -6h83q9 0 15.5 6t6.5 16v83q0 10 -6.5 16.5t-15.5 6.5z
M630 522h-83q-9 0 -15.5 -6.5t-6.5 -16.5v-83q0 -10 6.5 -16t15.5 -6h83q10 0 16.5 6t6.5 16v83q0 10 -6.5 16.5t-16.5 6.5zM477 371h-83q-10 0 -16.5 -6.5t-6.5 -15.5v-83q0 -10 6.5 -16.5t16.5 -6.5h83q9 0 15.5 6.5t6.5 16.5v83q0 9 -6.5 15.5t-15.5 6.5zM630 371h-83
q-9 0 -15.5 -6.5t-6.5 -15.5v-83q0 -10 6.5 -16.5t15.5 -6.5h83q10 0 16.5 6.5t6.5 16.5v83q0 9 -6.5 15.5t-16.5 6.5z" />
    <glyph glyph-name="tel" unicode="&#xe81e;" 
d="M946 136q0 -115 -72 -138t-359 -23h-2q-249 0 -314 11q-83 14 -105 63q-14 30 -14 87q0 53 21.5 122t62.5 139.5t93 130.5t120 97.5t136.5 37.5t136.5 -37.5t120 -97.5t92.5 -130.5t62 -139.5t21.5 -122zM514.5 588q-76.5 0 -130.5 -54t-54 -130.5t54 -130.5t130.5 -54
t130 54t53.5 130.5t-53.5 130.5t-130 54zM129 452q30 49 67 91t85 79t108 58.5t123 21.5q64 0 125 -23t109 -61t84.5 -79.5t61.5 -85.5q25 -40 63 -38.5t59 38.5q5 10 8.5 30.5t0 53t-17 66t-49.5 68.5t-89.5 61.5t-145 43.5t-209.5 17q-93 0 -170 -11t-129.5 -29
t-92.5 -42.5t-62 -51t-36.5 -54t-18 -52.5t-3 -46.5t4 -35t7.5 -18.5q17 -25 43 -30t46.5 5t27.5 24z" />
    <glyph glyph-name="cp4" unicode="&#xe610;" 
d="M34 376q4 6 5 13h21v-132h-27v86h-33v20q7 0 13.5 1t11.5 4q8 5 12 14zM178 377q7 -8 10.5 -21t3.5 -32q0 -20 -3.5 -33.5t-10.5 -21.5t-15.5 -11.5t-18.5 -3.5v0q-10 0 -19 4q-12 5 -19 16q-3 1 -7 16q-4 14 -4 34q0 19 4 32t10.5 21t15 11.5t18.5 3.5h1q10 0 18.5 -3.5
t15.5 -11.5v0zM165 310v15v7q0 11 -3 22q-1 5 -6 11l-7 4q-2 1 -5 1h-1q-5 0 -8.5 -2.5t-6.5 -6.5q-4 -7 -4 -15l-2 -11v0v-3v-8v-14q1 -8 3 -15.5t6 -13t12.5 -5.5t13 5.5t6.5 13t2 15.5v0zM270 257h-26v86h-34v20q7 0 13.5 1t12 4t9 8.5t4.5 12.5h21v-132zM34 159
q4 5 5 12h21v-132h-27v86h-33v20q7 0 13.5 1t11.5 4q8 5 12 14zM178 159q7 -8 10.5 -21t3.5 -32q0 -20 -3.5 -33.5t-10.5 -21.5t-15.5 -11.5t-18.5 -3.5v0q-10 0 -19 4q-12 5 -19 16q-3 1 -7 16q-4 14 -4 34q0 19 4 32t10.5 21t15 11.5t18.5 3.5h1q10 0 18.5 -3.5
t15.5 -11.5zM165 92v15v7q0 11 -3 22q-1 5 -6 11l-7 4q-2 1 -5 1h-1q-5 0 -8.5 -2.5t-6.5 -6.5q-4 -7 -4 -15l-2 -11v0v-3v-8v-14q1 -8 3 -15.5t6 -13t12.5 -5.5t13 5.5t6.5 13t2 15.5v0zM283 159q7 -8 10.5 -21t3.5 -32q0 -20 -3.5 -33.5t-10.5 -21.5t-15.5 -11.5
t-18.5 -3.5v0q-10 0 -19 4q-12 5 -19 16q-2 1 -7 16q-4 14 -4 34q0 19 4 32t10.5 21t15.5 11.5t18 3.5h1q10 0 18.5 -3.5t15.5 -11.5zM270 92q1 7 1 15v7q-1 11 -4 22q-1 5 -6 11l-7 4q-2 1 -5 1v0q-6 0 -9.5 -2.5t-6.5 -6.5q-3 -7 -4 -15l-2 -11v0v-3v-7q0 -8 1 -16
q0 -7 2 -14.5t6.5 -13t12.5 -5.5t12.5 5.5t6.5 13t2 15.5v0zM388 159q7 -8 11 -21t4 -32q0 -20 -4 -33.5t-11 -21.5t-15.5 -11.5t-18.5 -3.5v0q-10 0 -19 4q-12 5 -19 16q-2 1 -7 16q-4 14 -4 34q0 19 4 32t10.5 21t15.5 11.5t18 3.5h1q10 0 18.5 -3.5t15.5 -11.5zM375 92
q1 7 1 15v7q-1 11 -4 22q-1 5 -6 11l-6 4q-3 1 -6 1v0q-6 0 -9.5 -2.5t-5.5 -6.5q-4 -7 -5 -15l-1 -11h-1v-3v-8q0 -5 1 -14q0 -8 2 -15.5t6.5 -13t12.5 -5.5t12.5 5.5t6.5 13t2 15.5v0zM808 477q89 -3 151.5 -66.5t62.5 -152.5q0 -90 -63.5 -154.5t-153.5 -64.5h-4
q-8 0 -11 1l-308 -1h-0.5h-0.5v0h-27v86h-33v20q7 0 13.5 1t11.5 4q8 5 11 14q2 5 2 7h22v-85h0.5h0.5l331 1q68 3 115 53t47 118q0 71 -50.5 121t-122.5 50h-16l-28 -3l2 31q1 9 1 14q0 100 -71 171t-172 71q-86 0 -153 -55t-84 -140l-4 -21l-22 2q-10 1 -20 1
q-74 0 -132 -49q-6 -5 -14 -5q-10 0 -17 7t-7 16q0 11 8 18q73 63 166 61q26 93 104 152.5t175 59.5q119 0 203.5 -83t86.5 -200z" />
    <glyph glyph-name="5" unicode="&#xe60a;" 
d="M89 401q19 -8 41 -8q37 0 67 21t43 55q32 84 107 136t165 52t165 -51.5t107 -136.5q13 -34 43 -55t67 -21q48 0 82.5 34.5t34.5 83.5q0 22 -8 42q-35 92 -99.5 164t-149.5 116q-24 21 -94.5 40t-147.5 19q-166 0 -302 -95q-79 -56 -133.5 -136.5t-76.5 -175.5l13 39v-7
v-6q0 -37 20.5 -67t54.5 -43h1zM75 532q38 99 116 173t179 106q8 3 18 3q19 0 34.5 -11.5t20.5 -28.5q3 -9 3 -19q0 -19 -11 -34.5t-29 -20.5q-76 -25 -134.5 -80.5t-86.5 -129.5q-6 -17 -21 -27.5t-34 -10.5q-11 0 -21 4q-17 7 -27 21.5t-10 33.5q0 11 3 21v0zM773 320
q-21 21 -50 21q-16 0 -31 -6q-7 21 -25 34t-41 13v0q-19 0 -35 -9q-19 37 -62 37q-13 0 -26 -4l1 129q0 29 -21 50t-50.5 21t-50.5 -21t-21 -50v-230q-16 17 -39 23q-18 3 -25 3q-9 0 -20 -1v0l-3 -1h-2l-21 -3q-9 -1 -15 -7.5t-6 -14.5q0 -3 1 -6q50 -187 52 -199
q17 -92 88 -152.5t165 -60.5q107 0 182.5 75.5t75.5 181.5v127v0q0 30 -21 50zM748 143q0 -87 -62 -149t-150 -62v0q-77 0 -135.5 49.5t-72.5 124.5q-2 13 -46 178h1q9 1 14 1q7 0 13 -1.5t17 -8.5t20 -27t15 -51v0v-2v1v-1v-1v0v0q1 -2 2 -3v-1l-1 1v0l1 -1v0v0v-1h1l2 -4
l-1 2v-1l1 -1v0q2 -2 5 -3l-4 2q3 -3 6 -4l-3 2q2 -2 4 -2h-2h1l2 -1l2 -1h3h-2h1h1h2v0v0h1v0v0h1h2v0h2v0q2 0 2 1q1 0 3 1l-2 -1h1q2 1 3 2l-2 -1q2 0 3 2l-1 -1v0q1 0 2 1l-1 -1v1h1v0l1 1l1 1v0v0v0l1 1v0q2 1 2 4l-1 -3v1l2 2l-1 -1l1 1v0v0v1h0.5t0.5 1v0l1 2v1v0v0
v1l1 1v0v1v1v0v1v1v335q0 10 7.5 17.5t18 7.5t18 -7.5t7.5 -17.5v-342q0 -10 7 -16t16 -6t15.5 6t7.5 15v147q0 11 7.5 18.5t18 7.5t17.5 -7.5t7 -18.5v-154q1 -10 7.5 -16t16 -6t16 6t6.5 15v127q0 10 7.5 17.5t18 7.5t18 -7.5t7.5 -17.5v-135q0 -9 7 -15.5t16 -6.5t16 6.5
t7 15.5v94q0 11 7.5 18t18 7t18 -7t7.5 -18v-127z" />
    <glyph glyph-name="cp3" unicode="&#xe976;" 
d="M852 217q-15 0 -29 -4q-1 2 -3 4l-145 198l129 156q21 -10 43 -10q43 0 74 31t31 74t-31 74t-74.5 31t-74 -31t-30.5 -74q0 -39 26 -69l-120 -145l-74 102q-22 29 -54.5 29.5t-54.5 -28.5l-76 -99l-123 149q20 28 20 61q0 43 -31 74t-74.5 31t-74 -31t-30.5 -74.5t31 -74
t74 -30.5q28 0 52 14l128 -156l-155 -202l-0.5 -0.5l-0.5 -0.5q-16 5 -33 5q-46 0 -78 -32t-32 -77.5t32 -78t77.5 -32.5t78 32.5t32.5 77.5q0 52 -40 84l147 191l68 -83q-7 -8 -13 -20q-6 -14 -7 -30q-2 -39 23.5 -65t61.5 -26q5 0 14 1q11 1 15.5 11t-0.5 20q-8 15 -23 13
l-1.5 -0.5l-1.5 -0.5q-14 0 -26 8t-16 21q-6 20 6 36q10 15 27 17q16 2 30 -7.5t16 -26.5q2 -14 -5 -27t3 -24q8 -9 19.5 -8t17.5 12q14 25 10 54q-5 26 -22 45l63 76l138 -188q-43 -34 -43 -87q0 -46 32.5 -78t78 -32t77 32t31.5 77.5t-32 78t-78 32.5zM847 726
q25 0 42.5 -17.5t17.5 -42.5t-17.5 -43t-42.5 -18t-43 18t-18 43q1 25 18.5 42.5t42.5 17.5zM181 606q-25 0 -43 17.5t-18 42.5t18 42.5t43 17.5t42.5 -17.5t17.5 -42.5t-17.5 -42.5t-42.5 -17.5zM171.5 46.5q-26.5 -0.5 -45.5 19t-19 46t19 45.5t45.5 19t46 -19t19.5 -45.5
t-19.5 -45.5t-46 -19.5zM547 330q-8 2 -20 3q-18 1 -33 -4l-78 94l82 107q10 12 21.5 12t20.5 -13l81 -110zM852 42q-26 0 -45.5 19t-19.5 45.5t19.5 46t46 19.5t45.5 -19.5t19 -45.5q0 -27 -19 -46t-46 -19zM550 194v0v0zM551 194z" />
  </font>
</defs>
</svg>
